<svg width="10" height="9" viewBox="0 0 10 9" fill="none" xmlns="http://www.w3.org/2000/svg">
<path d="M8.80859 7.56641C9.13867 7.87109 9.13867 8.4043 8.80859 8.70898C8.65625 8.86133 8.45312 8.9375 8.25 8.9375C8.02148 8.9375 7.81836 8.86133 7.66602 8.70898L5 6.04297L2.30859 8.70898C2.15625 8.86133 1.95312 8.9375 1.75 8.9375C1.52148 8.9375 1.31836 8.86133 1.16602 8.70898C0.835938 8.4043 0.835938 7.87109 1.16602 7.56641L3.83203 4.875L1.16602 2.20898C0.835938 1.9043 0.835938 1.37109 1.16602 1.06641C1.4707 0.736328 2.00391 0.736328 2.30859 1.06641L5 3.73242L7.66602 1.06641C7.9707 0.736328 8.50391 0.736328 8.80859 1.06641C9.13867 1.37109 9.13867 1.9043 8.80859 2.20898L6.14258 4.90039L8.80859 7.56641Z" fill="#1F2A37"/>
</svg>
